<svg xmlns="http://www.w3.org/2000/svg" width="60" height="60" viewBox="0 0 60 60" fill="none">
<mask id="mask0" mask-type="alpha" maskUnits="userSpaceOnUse" x="0" y="0" width="60" height="60">
<circle cx="30" cy="30" r="30" fill="#FF9C65"/>
</mask>
<g mask="url(#mask0)">
<path d="M26.25 69L10.5 27" stroke="#0B3B3C" stroke-width="2"/>
<path d="M25.9804 45.664C25.8538 45.854 25.7367 46.0393 25.6286 46.2181L19.069 28.5071C19.1073 28.4155 19.1549 28.3058 19.2126 28.1808C19.4058 27.7622 19.7094 27.1762 20.1446 26.5234C21.0175 25.2141 22.3974 23.6694 24.4472 22.6444C25.4108 22.1626 26.6036 21.9198 28.0356 21.7531C28.6607 21.6802 29.3095 21.6239 29.992 21.5647C30.0863 21.5565 30.1811 21.5483 30.2767 21.5399C31.0576 21.4717 31.8759 21.3969 32.7075 21.2885C35.6415 20.9058 38.8174 20.0944 41.6077 17.57L48.3493 35.7723C45.8508 38.3542 42.9146 39.1684 39.9488 39.5553C39.1632 39.6577 38.3819 39.7295 37.6027 39.7975C37.5087 39.8057 37.4145 39.8139 37.3204 39.822C36.6412 39.881 35.9608 39.94 35.3042 40.0165C33.8183 40.1895 32.3392 40.4624 31.0528 41.1056C28.6026 42.3307 26.9825 44.1609 25.9804 45.664Z" stroke="#0B3B3C" stroke-width="2"/>
<mask id="mask1" mask-type="alpha" maskUnits="userSpaceOnUse" x="18" y="15" width="32" height="34">
<path d="M31.5 42C27 44.25 25.5 48.75 25.5 48.75L18 28.5C18 28.5 19.5 24 24 21.75C28.5 19.5 36.375 22.125 42 15.75L49.5 36C43.875 42.375 36 39.75 31.5 42Z" fill="#0B3B3C"/>
</mask>
<g mask="url(#mask1)">
<path d="M47.3438 39.1688C47.5688 39.3938 47.9437 39.3938 48.1687 39.1688C48.3937 38.9438 48.3937 38.5688 48.1687 38.3438C47.9437 38.1188 47.5688 38.1188 47.3438 38.3438C47.1188 38.5688 47.1188 38.9438 47.3438 39.1688Z" fill="#0A3B3C"/>
<path d="M47.3438 36.4688C47.5688 36.6938 47.9437 36.6938 48.1687 36.4688C48.3937 36.2438 48.3937 35.8688 48.1687 35.6438C47.9437 35.4188 47.5688 35.4188 47.3438 35.6438C47.1188 35.8688 47.1188 36.2438 47.3438 36.4688Z" fill="#0A3B3C"/>
<path d="M44.6438 36.4688C44.8688 36.6938 45.2438 36.6938 45.4688 36.4688C45.6938 36.2438 45.6938 35.8688 45.4688 35.6438C45.2438 35.4188 44.8688 35.4188 44.6438 35.6438C44.4188 35.8688 44.4188 36.2438 44.6438 36.4688Z" fill="#0A3B3C"/>
<path d="M47.3438 33.7688C47.5688 33.9938 47.9437 33.9938 48.1687 33.7688C48.3937 33.5438 48.3937 33.1688 48.1687 32.9438C47.9437 32.7188 47.5688 32.7188 47.3438 32.9438C47.1188 33.1688 47.1188 33.5438 47.3438 33.7688Z" fill="#0A3B3C"/>
<path d="M44.6438 47.3437C44.8688 47.5687 45.2438 47.5687 45.4688 47.3437C45.6938 47.1187 45.6938 46.7437 45.4688 46.5187C45.2438 46.2937 44.8688 46.2937 44.6438 46.5187C44.4188 46.7437 44.4188 47.1187 44.6438 47.3437Z" fill="#0A3B3C"/>
<path d="M41.9437 44.6437C42.1687 44.8687 42.5438 44.8687 42.7688 44.6437C42.9938 44.4187 42.9938 44.0437 42.7688 43.8187C42.5438 43.5937 42.1687 43.5937 41.9437 43.8187C41.7187 44.0437 41.7187 44.4187 41.9437 44.6437Z" fill="#0A3B3C"/>
<path d="M47.3438 44.6437C47.5688 44.8687 47.9437 44.8687 48.1687 44.6437C48.3937 44.4187 48.3937 44.0437 48.1687 43.8187C47.9437 43.5937 47.5688 43.5937 47.3438 43.8187C47.1188 44.0437 47.1188 44.4187 47.3438 44.6437Z" fill="#0A3B3C"/>
<path d="M44.6438 41.9437C44.8688 42.1687 45.2438 42.1687 45.4688 41.9437C45.6938 41.7187 45.6938 41.3437 45.4688 41.1187C45.2438 40.8937 44.8688 40.8937 44.6438 41.1187C44.4188 41.3437 44.4188 41.7187 44.6438 41.9437Z" fill="#0A3B3C"/>
<path d="M41.9437 41.9437C42.1687 42.1687 42.5438 42.1687 42.7688 41.9437C42.9938 41.7187 42.9938 41.3437 42.7688 41.1187C42.5438 40.8937 42.1687 40.8937 41.9437 41.1187C41.7187 41.3437 41.7187 41.7187 41.9437 41.9437Z" fill="#0A3B3C"/>
<path d="M44.6438 44.6437C44.8688 44.8687 45.2438 44.8687 45.4688 44.6437C45.6938 44.4187 45.6938 44.0437 45.4688 43.8187C45.2438 43.5937 44.8688 43.5937 44.6438 43.8187C44.4188 44.0437 44.4188 44.4187 44.6438 44.6437Z" fill="#0A3B3C"/>
<path d="M44.6438 39.1687C44.8688 39.3937 45.2438 39.3937 45.4688 39.1687C45.6938 38.9437 45.6938 38.5687 45.4688 38.3437C45.2438 38.1187 44.8688 38.1187 44.6438 38.3437C44.4188 38.5687 44.4188 38.9437 44.6438 39.1687Z" fill="#0A3B3C"/>
<path d="M47.3438 41.9437C47.5688 42.1687 47.9437 42.1687 48.1687 41.9437C48.3937 41.7187 48.3937 41.3437 48.1687 41.1187C47.9437 40.8937 47.5688 40.8937 47.3438 41.1187C47.1188 41.3437 47.1188 41.7187 47.3438 41.9437Z" fill="#0A3B3C"/>
<path d="M39.2437 41.9437C39.4687 42.1687 39.8437 42.1687 40.0687 41.9437C40.2937 41.7187 40.2937 41.3437 40.0687 41.1187C39.8437 40.8937 39.4687 40.8937 39.2437 41.1187C38.9437 41.3437 38.9437 41.7187 39.2437 41.9437Z" fill="#0A3B3C"/>
<path d="M41.9437 39.1687C42.1687 39.3937 42.5438 39.3937 42.7688 39.1687C42.9938 38.9437 42.9938 38.5687 42.7688 38.3437C42.5438 38.1187 42.1687 38.1187 41.9437 38.3437C41.7187 38.5687 41.7187 38.9437 41.9437 39.1687Z" fill="#0A3B3C"/>
<path d="M47.3438 39.1687C47.5688 39.3937 47.9437 39.3937 48.1687 39.1687C48.3937 38.9437 48.3937 38.5687 48.1687 38.3437C47.9437 38.1187 47.5688 38.1187 47.3438 38.3437C47.1188 38.5687 47.1188 38.9437 47.3438 39.1687Z" fill="#0A3B3C"/>
<path d="M44.6438 36.4687C44.8688 36.6937 45.2438 36.6937 45.4688 36.4687C45.6938 36.2437 45.6938 35.8687 45.4688 35.6437C45.2438 35.4187 44.8688 35.4187 44.6438 35.6437C44.4188 35.8687 44.4188 36.2437 44.6438 36.4687Z" fill="#0A3B3C"/>
<path d="M39.2437 47.3438C39.4687 47.5688 39.8437 47.5688 40.0687 47.3438C40.2937 47.1188 40.2937 46.7438 40.0687 46.5188C39.8437 46.2938 39.4687 46.2938 39.2437 46.5188C38.9437 46.7438 38.9437 47.1188 39.2437 47.3438Z" fill="#0A3B3C"/>
<path d="M36.4688 47.3438C36.6938 47.5688 37.0688 47.5688 37.2938 47.3438C37.5188 47.1188 37.5188 46.7438 37.2938 46.5188C37.0688 46.2938 36.6938 46.2938 36.4688 46.5188C36.2438 46.7438 36.2438 47.1188 36.4688 47.3438Z" fill="#0A3B3C"/>
<path d="M39.2437 44.6438C39.4687 44.8688 39.8437 44.8688 40.0687 44.6438C40.2937 44.4188 40.2937 44.0438 40.0687 43.8188C39.8437 43.5938 39.4687 43.5938 39.2437 43.8188C39.0187 44.0438 39.0187 44.4188 39.2437 44.6438Z" fill="#0A3B3C"/>
<path d="M41.9437 47.3438C42.1687 47.5688 42.5438 47.5688 42.7688 47.3438C42.9938 47.1188 42.9938 46.7438 42.7688 46.5188C42.5438 46.2938 42.1687 46.2938 41.9437 46.5188C41.7187 46.7438 41.7187 47.1188 41.9437 47.3438Z" fill="#0A3B3C"/>
<path d="M33.7688 47.3438C33.9938 47.5688 34.3688 47.5688 34.5938 47.3438C34.8188 47.1188 34.8188 46.7438 34.5938 46.5188C34.3688 46.2938 33.9938 46.2938 33.7688 46.5188C33.5438 46.7438 33.5438 47.1188 33.7688 47.3438Z" fill="#0A3B3C"/>
<path d="M36.4688 44.6438C36.6938 44.8688 37.0688 44.8688 37.2938 44.6438C37.5188 44.4188 37.5188 44.0438 37.2938 43.8188C37.0688 43.5938 36.6938 43.5938 36.4688 43.8188C36.2438 44.0438 36.2438 44.4188 36.4688 44.6438Z" fill="#0A3B3C"/>
<path d="M44.6438 47.3438C44.8688 47.5688 45.2438 47.5688 45.4688 47.3438C45.6938 47.1188 45.6938 46.7438 45.4688 46.5188C45.2438 46.2938 44.8688 46.2938 44.6438 46.5188C44.4188 46.7438 44.4188 47.1188 44.6438 47.3438Z" fill="#0A3B3C"/>
<path d="M41.9437 44.6438C42.1687 44.8688 42.5438 44.8688 42.7688 44.6438C42.9938 44.4188 42.9938 44.0438 42.7688 43.8188C42.5438 43.5938 42.1687 43.5938 41.9437 43.8188C41.7187 44.0438 41.7187 44.4188 41.9437 44.6438Z" fill="#0A3B3C"/>
<path d="M39.2437 41.9438C39.4687 42.1688 39.8437 42.1688 40.0687 41.9438C40.2937 41.7188 40.2937 41.3438 40.0687 41.1188C39.8437 40.8938 39.4687 40.8938 39.2437 41.1188C38.9437 41.3438 38.9437 41.7188 39.2437 41.9438Z" fill="#0A3B3C"/>
<path d="M47.3438 28.2938C47.5688 28.5188 47.9437 28.5188 48.1687 28.2938C48.3937 28.0688 48.3937 27.6938 48.1687 27.4688C47.9437 27.2438 47.5688 27.2438 47.3438 27.4688C47.1188 27.6938 47.1188 28.0688 47.3438 28.2938Z" fill="#0A3B3C"/>
<path d="M47.3438 25.5938C47.5688 25.8188 47.9437 25.8188 48.1687 25.5938C48.3937 25.3688 48.3937 24.9938 48.1687 24.7688C47.9437 24.5438 47.5688 24.5438 47.3438 24.7688C47.1188 24.9938 47.1188 25.3688 47.3438 25.5938Z" fill="#0A3B3C"/>
<path d="M44.6438 25.5938C44.8688 25.8188 45.2438 25.8188 45.4688 25.5938C45.6938 25.3688 45.6938 24.9938 45.4688 24.7688C45.2438 24.5438 44.8688 24.5438 44.6438 24.7688C44.4188 24.9938 44.4188 25.3688 44.6438 25.5938Z" fill="#0A3B3C"/>
<path d="M47.3438 22.8938C47.5688 23.1188 47.9437 23.1188 48.1687 22.8938C48.3937 22.6688 48.3937 22.2938 48.1687 22.0688C47.9437 21.8438 47.5688 21.8438 47.3438 22.0688C47.1188 22.2938 47.1188 22.6688 47.3438 22.8938Z" fill="#0A3B3C"/>
<path d="M44.6438 36.4687C44.8688 36.6937 45.2438 36.6937 45.4688 36.4687C45.6938 36.2437 45.6938 35.8687 45.4688 35.6437C45.2438 35.4187 44.8688 35.4187 44.6438 35.6437C44.4188 35.8687 44.4188 36.2437 44.6438 36.4687Z" fill="#0A3B3C"/>
<path d="M41.9437 33.7687C42.1687 33.9937 42.5438 33.9937 42.7688 33.7687C42.9938 33.5437 42.9938 33.1687 42.7688 32.9437C42.5438 32.7187 42.1687 32.7187 41.9437 32.9437C41.7187 33.1687 41.7187 33.5437 41.9437 33.7687Z" fill="#0A3B3C"/>
<path d="M47.3438 33.7687C47.5688 33.9937 47.9437 33.9937 48.1687 33.7687C48.3937 33.5437 48.3937 33.1687 48.1687 32.9437C47.9437 32.7187 47.5688 32.7187 47.3438 32.9437C47.1188 33.1687 47.1188 33.5437 47.3438 33.7687Z" fill="#0A3B3C"/>
<path d="M44.6438 30.9938C44.8688 31.2188 45.2438 31.2188 45.4688 30.9938C45.6938 30.7687 45.6938 30.3938 45.4688 30.1688C45.2438 29.9437 44.8688 29.9437 44.6438 30.1688C44.4188 30.4688 44.4188 30.7687 44.6438 30.9938Z" fill="#0A3B3C"/>
<path d="M41.9437 30.9938C42.1687 31.2188 42.5438 31.2188 42.7688 30.9938C42.9938 30.7687 42.9938 30.3938 42.7688 30.1688C42.5438 29.9437 42.1687 29.9437 41.9437 30.1688C41.7187 30.4688 41.7187 30.7687 41.9437 30.9938Z" fill="#0A3B3C"/>
<path d="M44.6438 33.7687C44.8688 33.9937 45.2438 33.9937 45.4688 33.7687C45.6938 33.5437 45.6938 33.1687 45.4688 32.9437C45.2438 32.7187 44.8688 32.7187 44.6438 32.9437C44.4188 33.1687 44.4188 33.5437 44.6438 33.7687Z" fill="#0A3B3C"/>
<path d="M44.6438 28.2937C44.8688 28.5187 45.2438 28.5187 45.4688 28.2937C45.6938 28.0687 45.6938 27.6937 45.4688 27.4687C45.2438 27.2437 44.8688 27.2437 44.6438 27.4687C44.4188 27.6937 44.4188 28.0687 44.6438 28.2937Z" fill="#0A3B3C"/>
<path d="M47.3438 30.9938C47.5688 31.2188 47.9437 31.2188 48.1687 30.9938C48.3937 30.7687 48.3937 30.3938 48.1687 30.1688C47.9437 29.9437 47.5688 29.9437 47.3438 30.1688C47.1188 30.4688 47.1188 30.7687 47.3438 30.9938Z" fill="#0A3B3C"/>
<path d="M39.2437 30.9938C39.4687 31.2188 39.8437 31.2188 40.0687 30.9938C40.2937 30.7687 40.2937 30.3938 40.0687 30.1688C39.8437 29.9437 39.4687 29.9437 39.2437 30.1688C39.0187 30.3938 38.9437 30.7687 39.2437 30.9938Z" fill="#0A3B3C"/>
<path d="M41.9437 28.2937C42.1687 28.5187 42.5438 28.5187 42.7688 28.2937C42.9938 28.0687 42.9938 27.6937 42.7688 27.4687C42.5438 27.2437 42.1687 27.2437 41.9437 27.4687C41.7187 27.6937 41.7187 28.0687 41.9437 28.2937Z" fill="#0A3B3C"/>
<path d="M47.3438 28.2937C47.5688 28.5187 47.9437 28.5187 48.1687 28.2937C48.3937 28.0687 48.3937 27.6937 48.1687 27.4687C47.9437 27.2437 47.5688 27.2437 47.3438 27.4687C47.1188 27.6937 47.1188 28.0687 47.3438 28.2937Z" fill="#0A3B3C"/>
<path d="M44.6438 25.5937C44.8688 25.8187 45.2438 25.8187 45.4688 25.5937C45.6938 25.3687 45.6938 24.9937 45.4688 24.7687C45.2438 24.5437 44.8688 24.5437 44.6438 24.7687C44.4188 24.9937 44.4188 25.3687 44.6438 25.5937Z" fill="#0A3B3C"/>
<path d="M39.2437 41.9438C39.4687 42.1688 39.8437 42.1688 40.0687 41.9438C40.2937 41.7188 40.2937 41.3438 40.0687 41.1188C39.8437 40.8938 39.4687 40.8938 39.2437 41.1188C38.9437 41.3438 38.9437 41.7188 39.2437 41.9438Z" fill="#0A3B3C"/>
<path d="M36.4688 39.1688C36.6938 39.3938 37.0688 39.3938 37.2938 39.1688C37.5188 38.9438 37.5188 38.5688 37.2938 38.3438C37.0688 38.1188 36.6938 38.1188 36.4688 38.3438C36.2438 38.5688 36.2438 38.9438 36.4688 39.1688Z" fill="#0A3B3C"/>
<path d="M41.9437 39.1688C42.1687 39.3938 42.5438 39.3938 42.7688 39.1688C42.9938 38.9438 42.9938 38.5688 42.7688 38.3438C42.5438 38.1188 42.1687 38.1188 41.9437 38.3438C41.7187 38.5688 41.7187 38.9438 41.9437 39.1688Z" fill="#0A3B3C"/>
<path d="M39.2437 36.4688C39.4687 36.6938 39.8437 36.6938 40.0687 36.4688C40.2937 36.2438 40.2937 35.8688 40.0687 35.6438C39.8437 35.4188 39.4687 35.4188 39.2437 35.6438C38.9437 35.8688 38.9437 36.2438 39.2437 36.4688Z" fill="#0A3B3C"/>
<path d="M36.4688 36.4688C36.6938 36.6938 37.0688 36.6938 37.2938 36.4688C37.5188 36.2438 37.5188 35.8688 37.2938 35.6438C37.0688 35.4188 36.6938 35.4188 36.4688 35.6438C36.2438 35.8688 36.2438 36.2438 36.4688 36.4688Z" fill="#0A3B3C"/>
<path d="M39.2437 39.1688C39.4687 39.3938 39.8437 39.3938 40.0687 39.1688C40.2937 38.9438 40.2937 38.5688 40.0687 38.3438C39.8437 38.1188 39.4687 38.1188 39.2437 38.3438C38.9437 38.5688 38.9437 38.9438 39.2437 39.1688Z" fill="#0A3B3C"/>
<path d="M39.2437 33.7688C39.4687 33.9938 39.8437 33.9938 40.0687 33.7688C40.2937 33.5438 40.2937 33.1688 40.0687 32.9438C39.8437 32.7188 39.4687 32.7188 39.2437 32.9438C38.9437 33.1688 38.9437 33.5438 39.2437 33.7688Z" fill="#0A3B3C"/>
<path d="M41.9437 36.4688C42.1687 36.6938 42.5438 36.6938 42.7688 36.4688C42.9938 36.2438 42.9938 35.8688 42.7688 35.6438C42.5438 35.4188 42.1687 35.4188 41.9437 35.6438C41.7187 35.8688 41.7187 36.2438 41.9437 36.4688Z" fill="#0A3B3C"/>
<path d="M33.7688 36.4688C33.9938 36.6938 34.3688 36.6938 34.5938 36.4688C34.8188 36.2438 34.8188 35.8688 34.5938 35.6438C34.3688 35.4188 33.9938 35.4188 33.7688 35.6438C33.5438 35.8688 33.5438 36.2438 33.7688 36.4688Z" fill="#0A3B3C"/>
<path d="M36.4688 33.7688C36.6938 33.9938 37.0688 33.9938 37.2938 33.7688C37.5188 33.5438 37.5188 33.1688 37.2938 32.9438C37.0688 32.7188 36.6938 32.7188 36.4688 32.9438C36.2438 33.1688 36.2438 33.5438 36.4688 33.7688Z" fill="#0A3B3C"/>
<path d="M44.6438 36.4688C44.8688 36.6938 45.2438 36.6938 45.4688 36.4688C45.6938 36.2438 45.6938 35.8688 45.4688 35.6438C45.2438 35.4188 44.8688 35.4188 44.6438 35.6438C44.4188 35.8688 44.4188 36.2438 44.6438 36.4688Z" fill="#0A3B3C"/>
<path d="M41.9437 33.7688C42.1687 33.9938 42.5438 33.9938 42.7688 33.7688C42.9938 33.5438 42.9938 33.1688 42.7688 32.9438C42.5438 32.7188 42.1687 32.7188 41.9437 32.9438C41.7187 33.1688 41.7187 33.5438 41.9437 33.7688Z" fill="#0A3B3C"/>
<path d="M39.2437 30.9938C39.4687 31.2188 39.8437 31.2188 40.0687 30.9938C40.2937 30.7687 40.2937 30.3938 40.0687 30.1688C39.8437 29.9437 39.4687 29.9437 39.2437 30.1688C39.0187 30.3938 38.9437 30.7687 39.2437 30.9938Z" fill="#0A3B3C"/>
<path d="M33.7688 47.3437C33.9938 47.5687 34.3688 47.5687 34.5938 47.3437C34.8188 47.1187 34.8188 46.7437 34.5938 46.5187C34.3688 46.2937 33.9938 46.2937 33.7688 46.5187C33.5438 46.7437 33.5438 47.1187 33.7688 47.3437Z" fill="#0A3B3C"/>
<path d="M31.0687 44.6437C31.2937 44.8687 31.6688 44.8687 31.8938 44.6437C32.1188 44.4187 32.1188 44.0437 31.8938 43.8187C31.6688 43.5937 31.2937 43.5937 31.0687 43.8187C30.8437 44.0437 30.8437 44.4187 31.0687 44.6437Z" fill="#0A3B3C"/>
<path d="M36.4688 44.6437C36.6938 44.8687 37.0688 44.8687 37.2938 44.6437C37.5188 44.4187 37.5188 44.0437 37.2938 43.8187C37.0688 43.5937 36.6938 43.5937 36.4688 43.8187C36.2438 44.0437 36.2438 44.4187 36.4688 44.6437Z" fill="#0A3B3C"/>
<path d="M33.7688 41.9437C33.9938 42.1687 34.3688 42.1687 34.5938 41.9437C34.8188 41.7187 34.8188 41.3437 34.5938 41.1187C34.3688 40.8937 33.9938 40.8937 33.7688 41.1187C33.5438 41.3437 33.5438 41.7187 33.7688 41.9437Z" fill="#0A3B3C"/>
<path d="M31.0687 41.9437C31.2937 42.1687 31.6688 42.1687 31.8938 41.9437C32.1188 41.7187 32.1188 41.3437 31.8938 41.1187C31.6688 40.8937 31.2937 40.8937 31.0687 41.1187C30.8437 41.3437 30.8437 41.7187 31.0687 41.9437Z" fill="#0A3B3C"/>
<path d="M33.7688 44.6437C33.9938 44.8687 34.3688 44.8687 34.5938 44.6437C34.8188 44.4187 34.8188 44.0437 34.5938 43.8187C34.3688 43.5937 33.9938 43.5937 33.7688 43.8187C33.5438 44.0437 33.5438 44.4187 33.7688 44.6437Z" fill="#0A3B3C"/>
<path d="M33.7688 39.1687C33.9938 39.3937 34.3688 39.3937 34.5938 39.1687C34.8188 38.9437 34.8188 38.5687 34.5938 38.3437C34.3688 38.1187 33.9938 38.1187 33.7688 38.3437C33.5438 38.5687 33.5438 38.9437 33.7688 39.1687Z" fill="#0A3B3C"/>
<path d="M36.4688 41.9437C36.6938 42.1687 37.0688 42.1687 37.2938 41.9437C37.5188 41.7187 37.5188 41.3437 37.2938 41.1187C37.0688 40.8937 36.6938 40.8937 36.4688 41.1187C36.2438 41.3437 36.2438 41.7187 36.4688 41.9437Z" fill="#0A3B3C"/>
<path d="M28.2938 41.9437C28.5188 42.1687 28.8937 42.1687 29.1187 41.9437C29.3437 41.7187 29.3437 41.3437 29.1187 41.1187C28.8937 40.8937 28.5188 40.8937 28.2938 41.1187C28.0687 41.3437 28.0687 41.7187 28.2938 41.9437Z" fill="#0A3B3C"/>
<path d="M31.0687 39.1687C31.2937 39.3937 31.6688 39.3937 31.8938 39.1687C32.1188 38.9437 32.1188 38.5687 31.8938 38.3437C31.6688 38.1187 31.2937 38.1187 31.0687 38.3437C30.8437 38.5687 30.8437 38.9437 31.0687 39.1687Z" fill="#0A3B3C"/>
<path d="M39.2437 41.9437C39.4687 42.1687 39.8437 42.1687 40.0687 41.9437C40.2937 41.7187 40.2937 41.3437 40.0687 41.1187C39.8437 40.8937 39.4687 40.8937 39.2437 41.1187C38.9437 41.3437 38.9437 41.7187 39.2437 41.9437Z" fill="#0A3B3C"/>
<path d="M36.4688 39.1687C36.6938 39.3937 37.0688 39.3937 37.2938 39.1687C37.5188 38.9437 37.5188 38.5687 37.2938 38.3437C37.0688 38.1187 36.6938 38.1187 36.4688 38.3437C36.2438 38.5687 36.2438 38.9437 36.4688 39.1687Z" fill="#0A3B3C"/>
<path d="M33.7688 36.4687C33.9938 36.6937 34.3688 36.6937 34.5938 36.4687C34.8188 36.2437 34.8188 35.8687 34.5938 35.6437C34.3688 35.4187 33.9938 35.4187 33.7688 35.6437C33.5438 35.8687 33.5438 36.2437 33.7688 36.4687Z" fill="#0A3B3C"/>
<path d="M28.2938 47.3438C28.5188 47.5688 28.8937 47.5688 29.1187 47.3438C29.3437 47.1188 29.3437 46.7438 29.1187 46.5188C28.8937 46.2938 28.5188 46.2938 28.2938 46.5188C28.0687 46.7438 28.0687 47.1188 28.2938 47.3438Z" fill="#0A3B3C"/>
<path d="M25.5938 47.3438C25.8188 47.5688 26.1938 47.5688 26.4188 47.3438C26.6438 47.1188 26.6438 46.7438 26.4188 46.5188C26.1938 46.2938 25.8188 46.2938 25.5938 46.5188C25.3688 46.7438 25.3688 47.1188 25.5938 47.3438Z" fill="#0A3B3C"/>
<path d="M28.2938 44.6438C28.5188 44.8688 28.8937 44.8688 29.1187 44.6438C29.3437 44.4188 29.3437 44.0438 29.1187 43.8188C28.8937 43.5938 28.5188 43.5938 28.2938 43.8188C28.0687 44.0438 28.0687 44.4188 28.2938 44.6438Z" fill="#0A3B3C"/>
<path d="M31.0687 47.3438C31.2937 47.5688 31.6688 47.5688 31.8938 47.3438C32.1188 47.1188 32.1188 46.7438 31.8938 46.5188C31.6688 46.2938 31.2937 46.2938 31.0687 46.5188C30.8437 46.7438 30.8437 47.1188 31.0687 47.3438Z" fill="#0A3B3C"/>
<path d="M22.8938 47.3438C23.1188 47.5688 23.4938 47.5688 23.7188 47.3438C23.9438 47.1188 23.9438 46.7438 23.7188 46.5188C23.4938 46.2938 23.1188 46.2938 22.8938 46.5188C22.6688 46.7438 22.6688 47.1188 22.8938 47.3438Z" fill="#0A3B3C"/>
<path d="M25.5938 44.6438C25.8188 44.8688 26.1938 44.8688 26.4188 44.6438C26.6438 44.4188 26.6438 44.0438 26.4188 43.8188C26.1938 43.5938 25.8188 43.5938 25.5938 43.8188C25.3688 44.0438 25.3688 44.4188 25.5938 44.6438Z" fill="#0A3B3C"/>
<path d="M33.7688 47.3438C33.9938 47.5688 34.3688 47.5688 34.5938 47.3438C34.8188 47.1188 34.8188 46.7438 34.5938 46.5188C34.3688 46.2938 33.9938 46.2938 33.7688 46.5188C33.5438 46.7438 33.5438 47.1188 33.7688 47.3438Z" fill="#0A3B3C"/>
<path d="M31.0687 44.6438C31.2937 44.8688 31.6688 44.8688 31.8938 44.6438C32.1188 44.4188 32.1188 44.0438 31.8938 43.8188C31.6688 43.5938 31.2937 43.5938 31.0687 43.8188C30.8437 44.0438 30.8437 44.4188 31.0687 44.6438Z" fill="#0A3B3C"/>
<path d="M28.2938 41.9438C28.5188 42.1688 28.8937 42.1688 29.1187 41.9438C29.3437 41.7188 29.3437 41.3438 29.1187 41.1188C28.8937 40.8938 28.5188 40.8938 28.2938 41.1188C28.0687 41.3438 28.0687 41.7188 28.2938 41.9438Z" fill="#0A3B3C"/>
<path d="M44.6438 25.5937C44.8688 25.8187 45.2438 25.8187 45.4688 25.5937C45.6938 25.3687 45.6938 24.9937 45.4688 24.7687C45.2438 24.5437 44.8688 24.5437 44.6438 24.7687C44.4188 24.9937 44.4188 25.3687 44.6438 25.5937Z" fill="#0A3B3C"/>
<path d="M41.9437 22.8937C42.1687 23.1187 42.5438 23.1187 42.7688 22.8937C42.9938 22.6687 42.9938 22.2937 42.7688 22.0687C42.5438 21.8437 42.1687 21.8437 41.9437 22.0687C41.7187 22.2937 41.7187 22.6687 41.9437 22.8937Z" fill="#0A3B3C"/>
<path d="M47.3438 22.8937C47.5688 23.1187 47.9437 23.1187 48.1687 22.8937C48.3937 22.6687 48.3937 22.2937 48.1687 22.0687C47.9437 21.8437 47.5688 21.8437 47.3438 22.0687C47.1188 22.2937 47.1188 22.6687 47.3438 22.8937Z" fill="#0A3B3C"/>
<path d="M44.6438 20.1187C44.8688 20.3437 45.2438 20.3437 45.4688 20.1187C45.6938 19.8937 45.6938 19.5188 45.4688 19.2938C45.2438 19.0687 44.8688 19.0687 44.6438 19.2938C44.4188 19.5188 44.4188 19.8937 44.6438 20.1187Z" fill="#0A3B3C"/>
<path d="M41.9437 20.1187C42.1687 20.3437 42.5438 20.3437 42.7688 20.1187C42.9938 19.8937 42.9938 19.5188 42.7688 19.2938C42.5438 19.0687 42.1687 19.0687 41.9437 19.2938C41.7187 19.5188 41.7187 19.8937 41.9437 20.1187Z" fill="#0A3B3C"/>
<path d="M44.6438 22.8937C44.8688 23.1187 45.2438 23.1187 45.4688 22.8937C45.6938 22.6687 45.6938 22.2937 45.4688 22.0687C45.2438 21.8437 44.8688 21.8437 44.6438 22.0687C44.4188 22.2937 44.4188 22.6687 44.6438 22.8937Z" fill="#0A3B3C"/>
<path d="M44.6438 17.4187C44.8688 17.6437 45.2438 17.6437 45.4688 17.4187C45.6938 17.1937 45.6938 16.8187 45.4688 16.5937C45.2438 16.3687 44.8688 16.3687 44.6438 16.5937C44.4188 16.8187 44.4188 17.1937 44.6438 17.4187Z" fill="#0A3B3C"/>
<path d="M47.3438 20.1187C47.5688 20.3437 47.9437 20.3437 48.1687 20.1187C48.3937 19.8937 48.3937 19.5188 48.1687 19.2938C47.9437 19.0687 47.5688 19.0687 47.3438 19.2938C47.1188 19.5188 47.1188 19.8937 47.3438 20.1187Z" fill="#0A3B3C"/>
<path d="M39.2437 20.1187C39.4687 20.3437 39.8437 20.3437 40.0687 20.1187C40.2937 19.8937 40.2937 19.5188 40.0687 19.2938C39.8437 19.0687 39.4687 19.0687 39.2437 19.2938C39.0187 19.5188 38.9437 19.8937 39.2437 20.1187Z" fill="#0A3B3C"/>
<path d="M41.9437 17.4187C42.1687 17.6437 42.5438 17.6437 42.7688 17.4187C42.9938 17.1937 42.9938 16.8187 42.7688 16.5937C42.5438 16.3687 42.1687 16.3687 41.9437 16.5937C41.7187 16.8187 41.7187 17.1937 41.9437 17.4187Z" fill="#0A3B3C"/>
<path d="M47.3438 17.4187C47.5688 17.6437 47.9437 17.6437 48.1687 17.4187C48.3937 17.1937 48.3937 16.8187 48.1687 16.5937C47.9437 16.3687 47.5688 16.3687 47.3438 16.5937C47.1188 16.8187 47.1188 17.1937 47.3438 17.4187Z" fill="#0A3B3C"/>
<path d="M39.2437 30.9938C39.4687 31.2188 39.8437 31.2188 40.0687 30.9938C40.2937 30.7687 40.2937 30.3938 40.0687 30.1688C39.8437 29.9437 39.4687 29.9437 39.2437 30.1688C39.0187 30.3938 38.9437 30.7687 39.2437 30.9938Z" fill="#0A3B3C"/>
<path d="M36.4688 28.2938C36.6938 28.5188 37.0688 28.5188 37.2938 28.2938C37.5188 28.0688 37.5188 27.6938 37.2938 27.4688C37.0688 27.2438 36.6938 27.2438 36.4688 27.4688C36.2438 27.6938 36.2438 28.0688 36.4688 28.2938Z" fill="#0A3B3C"/>
<path d="M41.9437 28.2938C42.1687 28.5188 42.5438 28.5188 42.7688 28.2938C42.9938 28.0688 42.9938 27.6938 42.7688 27.4688C42.5438 27.2438 42.1687 27.2438 41.9437 27.4688C41.7187 27.6938 41.7187 28.0688 41.9437 28.2938Z" fill="#0A3B3C"/>
<path d="M39.2437 25.5938C39.4687 25.8188 39.8437 25.8188 40.0687 25.5938C40.2937 25.3688 40.2937 24.9938 40.0687 24.7688C39.8437 24.5438 39.4687 24.5438 39.2437 24.7688C38.9437 24.9938 38.9437 25.3688 39.2437 25.5938Z" fill="#0A3B3C"/>
<path d="M36.4688 25.5938C36.6938 25.8188 37.0688 25.8188 37.2938 25.5938C37.5188 25.3688 37.5188 24.9938 37.2938 24.7688C37.0688 24.5438 36.6938 24.5438 36.4688 24.7688C36.2438 24.9938 36.2438 25.3688 36.4688 25.5938Z" fill="#0A3B3C"/>
<path d="M39.2437 28.2938C39.4687 28.5188 39.8437 28.5188 40.0687 28.2938C40.2937 28.0688 40.2937 27.6938 40.0687 27.4688C39.8437 27.2438 39.4687 27.2438 39.2437 27.4688C38.9437 27.6938 38.9437 28.0688 39.2437 28.2938Z" fill="#0A3B3C"/>
<path d="M39.2437 22.8938C39.4687 23.1188 39.8437 23.1188 40.0687 22.8938C40.2937 22.6688 40.2937 22.2938 40.0687 22.0688C39.8437 21.8438 39.4687 21.8438 39.2437 22.0688C38.9437 22.2938 38.9437 22.6688 39.2437 22.8938Z" fill="#0A3B3C"/>
<path d="M41.9437 25.5938C42.1687 25.8188 42.5438 25.8188 42.7688 25.5938C42.9938 25.3688 42.9938 24.9938 42.7688 24.7688C42.5438 24.5438 42.1687 24.5438 41.9437 24.7688C41.7187 24.9938 41.7187 25.3688 41.9437 25.5938Z" fill="#0A3B3C"/>
<path d="M33.7688 25.5938C33.9938 25.8188 34.3688 25.8188 34.5938 25.5938C34.8188 25.3688 34.8188 24.9938 34.5938 24.7688C34.3688 24.5438 33.9938 24.5438 33.7688 24.7688C33.5438 24.9938 33.5438 25.3688 33.7688 25.5938Z" fill="#0A3B3C"/>
<path d="M36.4688 22.8938C36.6938 23.1188 37.0688 23.1188 37.2938 22.8938C37.5188 22.6688 37.5188 22.2938 37.2938 22.0688C37.0688 21.8438 36.6938 21.8438 36.4688 22.0688C36.2438 22.2938 36.2438 22.6688 36.4688 22.8938Z" fill="#0A3B3C"/>
<path d="M44.6438 25.5938C44.8688 25.8188 45.2438 25.8188 45.4688 25.5938C45.6938 25.3688 45.6938 24.9938 45.4688 24.7688C45.2438 24.5438 44.8688 24.5438 44.6438 24.7688C44.4188 24.9938 44.4188 25.3688 44.6438 25.5938Z" fill="#0A3B3C"/>
<path d="M41.9437 22.8938C42.1687 23.1188 42.5438 23.1188 42.7688 22.8938C42.9938 22.6688 42.9938 22.2938 42.7688 22.0688C42.5438 21.8438 42.1687 21.8438 41.9437 22.0688C41.7187 22.2938 41.7187 22.6688 41.9437 22.8938Z" fill="#0A3B3C"/>
<path d="M39.2437 20.1187C39.4687 20.3437 39.8437 20.3437 40.0687 20.1187C40.2937 19.8937 40.2937 19.5188 40.0687 19.2938C39.8437 19.0687 39.4687 19.0687 39.2437 19.2938C39.0187 19.5188 38.9437 19.8937 39.2437 20.1187Z" fill="#0A3B3C"/>
<path d="M33.7688 36.4687C33.9938 36.6937 34.3688 36.6937 34.5938 36.4687C34.8188 36.2437 34.8188 35.8687 34.5938 35.6437C34.3688 35.4187 33.9938 35.4187 33.7688 35.6437C33.5438 35.8687 33.5438 36.2437 33.7688 36.4687Z" fill="#0A3B3C"/>
<path d="M31.0687 33.7687C31.2937 33.9937 31.6688 33.9937 31.8938 33.7687C32.1188 33.5437 32.1188 33.1687 31.8938 32.9437C31.6688 32.7187 31.2937 32.7187 31.0687 32.9437C30.8437 33.1687 30.8437 33.5437 31.0687 33.7687Z" fill="#0A3B3C"/>
<path d="M36.4688 33.7687C36.6938 33.9937 37.0688 33.9937 37.2938 33.7687C37.5188 33.5437 37.5188 33.1687 37.2938 32.9437C37.0688 32.7187 36.6938 32.7187 36.4688 32.9437C36.2438 33.1687 36.2438 33.5437 36.4688 33.7687Z" fill="#0A3B3C"/>
<path d="M33.7688 30.9938C33.9938 31.2188 34.3688 31.2188 34.5938 30.9938C34.8188 30.7687 34.8188 30.3938 34.5938 30.1688C34.3688 29.9437 33.9938 29.9437 33.7688 30.1688C33.5438 30.4688 33.5438 30.7687 33.7688 30.9938Z" fill="#0A3B3C"/>
<path d="M31.0687 30.9938C31.2937 31.2188 31.6688 31.2188 31.8938 30.9938C32.1188 30.7687 32.1188 30.3938 31.8938 30.1688C31.6688 29.9437 31.2937 29.9437 31.0687 30.1688C30.8437 30.4688 30.8437 30.7687 31.0687 30.9938Z" fill="#0A3B3C"/>
<path d="M33.7688 33.7687C33.9938 33.9937 34.3688 33.9937 34.5938 33.7687C34.8188 33.5437 34.8188 33.1687 34.5938 32.9437C34.3688 32.7187 33.9938 32.7187 33.7688 32.9437C33.5438 33.1687 33.5438 33.5437 33.7688 33.7687Z" fill="#0A3B3C"/>
<path d="M33.7688 28.2937C33.9938 28.5187 34.3688 28.5187 34.5938 28.2937C34.8188 28.0687 34.8188 27.6937 34.5938 27.4687C34.3688 27.2437 33.9938 27.2437 33.7688 27.4687C33.5438 27.6937 33.5438 28.0687 33.7688 28.2937Z" fill="#0A3B3C"/>
<path d="M36.4688 30.9938C36.6938 31.2188 37.0688 31.2188 37.2938 30.9938C37.5188 30.7687 37.5188 30.3938 37.2938 30.1688C37.0688 29.9437 36.6938 29.9437 36.4688 30.1688C36.2438 30.4688 36.2438 30.7687 36.4688 30.9938Z" fill="#0A3B3C"/>
<path d="M28.2938 30.9938C28.5188 31.2188 28.8937 31.2188 29.1187 30.9938C29.3437 30.7687 29.3437 30.3938 29.1187 30.1688C28.8937 29.9437 28.5188 29.9437 28.2938 30.1688C28.0687 30.4688 28.0687 30.7687 28.2938 30.9938Z" fill="#0A3B3C"/>
<path d="M31.0687 28.2937C31.2937 28.5187 31.6688 28.5187 31.8938 28.2937C32.1188 28.0687 32.1188 27.6937 31.8938 27.4687C31.6688 27.2437 31.2937 27.2437 31.0687 27.4687C30.8437 27.6937 30.8437 28.0687 31.0687 28.2937Z" fill="#0A3B3C"/>
<path d="M39.2437 30.9938C39.4687 31.2188 39.8437 31.2188 40.0687 30.9938C40.2937 30.7687 40.2937 30.3938 40.0687 30.1688C39.8437 29.9437 39.4687 29.9437 39.2437 30.1688C39.0187 30.3938 38.9437 30.7687 39.2437 30.9938Z" fill="#0A3B3C"/>
<path d="M36.4688 28.2937C36.6938 28.5187 37.0688 28.5187 37.2938 28.2937C37.5188 28.0687 37.5188 27.6937 37.2938 27.4687C37.0688 27.2437 36.6938 27.2437 36.4688 27.4687C36.2438 27.6937 36.2438 28.0687 36.4688 28.2937Z" fill="#0A3B3C"/>
<path d="M33.7688 25.5937C33.9938 25.8187 34.3688 25.8187 34.5938 25.5937C34.8188 25.3687 34.8188 24.9937 34.5938 24.7687C34.3688 24.5437 33.9938 24.5437 33.7688 24.7687C33.5438 24.9937 33.5438 25.3687 33.7688 25.5937Z" fill="#0A3B3C"/>
<path d="M28.2938 41.9438C28.5188 42.1688 28.8937 42.1688 29.1187 41.9438C29.3437 41.7188 29.3437 41.3438 29.1187 41.1188C28.8937 40.8938 28.5188 40.8938 28.2938 41.1188C28.0687 41.3438 28.0687 41.7188 28.2938 41.9438Z" fill="#0A3B3C"/>
<path d="M25.5938 39.1688C25.8188 39.3938 26.1938 39.3938 26.4188 39.1688C26.6438 38.9438 26.6438 38.5688 26.4188 38.3438C26.1938 38.1188 25.8188 38.1188 25.5938 38.3438C25.3688 38.5688 25.3688 38.9438 25.5938 39.1688Z" fill="#0A3B3C"/>
<path d="M31.0687 39.1688C31.2937 39.3938 31.6688 39.3938 31.8938 39.1688C32.1188 38.9438 32.1188 38.5688 31.8938 38.3438C31.6688 38.1188 31.2937 38.1188 31.0687 38.3438C30.8437 38.5688 30.8437 38.9438 31.0687 39.1688Z" fill="#0A3B3C"/>
<path d="M28.2938 36.4688C28.5188 36.6938 28.8937 36.6938 29.1187 36.4688C29.3437 36.2438 29.3437 35.8688 29.1187 35.6438C28.8937 35.4188 28.5188 35.4188 28.2938 35.6438C28.0687 35.8688 28.0687 36.2438 28.2938 36.4688Z" fill="#0A3B3C"/>
<path d="M25.5938 36.4688C25.8188 36.6938 26.1938 36.6938 26.4188 36.4688C26.6438 36.2438 26.6438 35.8688 26.4188 35.6438C26.1938 35.4188 25.8188 35.4188 25.5938 35.6438C25.3688 35.8688 25.3688 36.2438 25.5938 36.4688Z" fill="#0A3B3C"/>
<path d="M28.2938 39.1688C28.5188 39.3938 28.8937 39.3938 29.1187 39.1688C29.3437 38.9438 29.3437 38.5688 29.1187 38.3438C28.8937 38.1188 28.5188 38.1188 28.2938 38.3438C28.0687 38.5688 28.0687 38.9438 28.2938 39.1688Z" fill="#0A3B3C"/>
<path d="M28.2938 33.7688C28.5188 33.9938 28.8937 33.9938 29.1187 33.7688C29.3437 33.5438 29.3437 33.1688 29.1187 32.9438C28.8937 32.7188 28.5188 32.7188 28.2938 32.9438C28.0687 33.1688 28.0687 33.5438 28.2938 33.7688Z" fill="#0A3B3C"/>
<path d="M31.0687 36.4688C31.2937 36.6938 31.6688 36.6938 31.8938 36.4688C32.1188 36.2438 32.1188 35.8688 31.8938 35.6438C31.6688 35.4188 31.2937 35.4188 31.0687 35.6438C30.8437 35.8688 30.8437 36.2438 31.0687 36.4688Z" fill="#0A3B3C"/>
<path d="M22.8938 36.4688C23.1188 36.6938 23.4938 36.6938 23.7188 36.4688C23.9438 36.2438 23.9438 35.8688 23.7188 35.6438C23.4938 35.4188 23.1188 35.4188 22.8938 35.6438C22.6688 35.8688 22.6688 36.2438 22.8938 36.4688Z" fill="#0A3B3C"/>
<path d="M25.5938 33.7688C25.8188 33.9938 26.1938 33.9938 26.4188 33.7688C26.6438 33.5438 26.6438 33.1688 26.4188 32.9438C26.1938 32.7188 25.8188 32.7188 25.5938 32.9438C25.3688 33.1688 25.3688 33.5438 25.5938 33.7688Z" fill="#0A3B3C"/>
<path d="M33.7688 36.4688C33.9938 36.6938 34.3688 36.6938 34.5938 36.4688C34.8188 36.2438 34.8188 35.8688 34.5938 35.6438C34.3688 35.4188 33.9938 35.4188 33.7688 35.6438C33.5438 35.8688 33.5438 36.2438 33.7688 36.4688Z" fill="#0A3B3C"/>
<path d="M31.0687 33.7688C31.2937 33.9938 31.6688 33.9938 31.8938 33.7688C32.1188 33.5438 32.1188 33.1688 31.8938 32.9438C31.6688 32.7188 31.2937 32.7188 31.0687 32.9438C30.8437 33.1688 30.8437 33.5438 31.0687 33.7688Z" fill="#0A3B3C"/>
<path d="M28.2938 30.9938C28.5188 31.2188 28.8937 31.2188 29.1187 30.9938C29.3437 30.7687 29.3437 30.3938 29.1187 30.1688C28.8937 29.9437 28.5188 29.9437 28.2938 30.1688C28.0687 30.4688 28.0687 30.7687 28.2938 30.9938Z" fill="#0A3B3C"/>
<path d="M22.8938 47.3437C23.1188 47.5687 23.4938 47.5687 23.7188 47.3437C23.9438 47.1187 23.9438 46.7437 23.7188 46.5187C23.4938 46.2937 23.1188 46.2937 22.8938 46.5187C22.6688 46.7437 22.6688 47.1187 22.8938 47.3437Z" fill="#0A3B3C"/>
<path d="M20.1187 44.6437C20.3437 44.8687 20.7187 44.8687 20.9437 44.6437C21.1687 44.4187 21.1687 44.0437 20.9437 43.8187C20.7187 43.5937 20.3437 43.5937 20.1187 43.8187C19.8937 44.0437 19.8937 44.4187 20.1187 44.6437Z" fill="#0A3B3C"/>
<path d="M25.5938 44.6437C25.8188 44.8687 26.1938 44.8687 26.4188 44.6437C26.6438 44.4187 26.6438 44.0437 26.4188 43.8187C26.1938 43.5937 25.8188 43.5937 25.5938 43.8187C25.3688 44.0437 25.3688 44.4187 25.5938 44.6437Z" fill="#0A3B3C"/>
<path d="M22.8938 41.9437C23.1188 42.1687 23.4938 42.1687 23.7188 41.9437C23.9438 41.7187 23.9438 41.3437 23.7188 41.1187C23.4938 40.8937 23.1188 40.8937 22.8938 41.1187C22.6688 41.3437 22.6688 41.7187 22.8938 41.9437Z" fill="#0A3B3C"/>
<path d="M20.1187 41.9437C20.3437 42.1687 20.7187 42.1687 20.9437 41.9437C21.1687 41.7187 21.1687 41.3437 20.9437 41.1187C20.7187 40.8937 20.3437 40.8937 20.1187 41.1187C19.8937 41.3437 19.8937 41.7187 20.1187 41.9437Z" fill="#0A3B3C"/>
<path d="M22.8938 44.6437C23.1188 44.8687 23.4938 44.8687 23.7188 44.6437C23.9438 44.4187 23.9438 44.0437 23.7188 43.8187C23.4938 43.5937 23.1188 43.5937 22.8938 43.8187C22.6688 44.0437 22.6688 44.4187 22.8938 44.6437Z" fill="#0A3B3C"/>
<path d="M22.8938 39.1687C23.1188 39.3937 23.4938 39.3937 23.7188 39.1687C23.9438 38.9437 23.9438 38.5687 23.7188 38.3437C23.4938 38.1187 23.1188 38.1187 22.8938 38.3437C22.6688 38.5687 22.6688 38.9437 22.8938 39.1687Z" fill="#0A3B3C"/>
<path d="M25.5938 41.9437C25.8188 42.1687 26.1938 42.1687 26.4188 41.9437C26.6438 41.7187 26.6438 41.3437 26.4188 41.1187C26.1938 40.8937 25.8188 40.8937 25.5938 41.1187C25.3688 41.3437 25.3688 41.7187 25.5938 41.9437Z" fill="#0A3B3C"/>
<path d="M17.4188 41.9437C17.6438 42.1687 18.0187 42.1687 18.2437 41.9437C18.4687 41.7187 18.4687 41.3437 18.2437 41.1187C18.0187 40.8937 17.6438 40.8937 17.4188 41.1187C17.1937 41.3437 17.1937 41.7187 17.4188 41.9437Z" fill="#0A3B3C"/>
<path d="M20.1187 39.1687C20.3437 39.3937 20.7187 39.3937 20.9437 39.1687C21.1687 38.9437 21.1687 38.5687 20.9437 38.3437C20.7187 38.1187 20.3437 38.1187 20.1187 38.3437C19.8937 38.5687 19.8937 38.9437 20.1187 39.1687Z" fill="#0A3B3C"/>
<path d="M28.2938 41.9437C28.5188 42.1687 28.8937 42.1687 29.1187 41.9437C29.3437 41.7187 29.3437 41.3437 29.1187 41.1187C28.8937 40.8937 28.5188 40.8937 28.2938 41.1187C28.0687 41.3437 28.0687 41.7187 28.2938 41.9437Z" fill="#0A3B3C"/>
<path d="M25.5938 39.1687C25.8188 39.3937 26.1938 39.3937 26.4188 39.1687C26.6438 38.9437 26.6438 38.5687 26.4188 38.3437C26.1938 38.1187 25.8188 38.1187 25.5938 38.3437C25.3688 38.5687 25.3688 38.9437 25.5938 39.1687Z" fill="#0A3B3C"/>
<path d="M22.8938 36.4687C23.1188 36.6937 23.4938 36.6937 23.7188 36.4687C23.9438 36.2437 23.9438 35.8687 23.7188 35.6437C23.4938 35.4187 23.1188 35.4187 22.8938 35.6437C22.6688 35.8687 22.6688 36.2437 22.8938 36.4687Z" fill="#0A3B3C"/>
<path d="M39.2437 20.1187C39.4687 20.3437 39.8437 20.3437 40.0687 20.1187C40.2937 19.8937 40.2937 19.5188 40.0687 19.2938C39.8437 19.0687 39.4687 19.0687 39.2437 19.2938C39.0187 19.5188 38.9437 19.8937 39.2437 20.1187Z" fill="#0A3B3C"/>
<path d="M36.4688 17.4187C36.6938 17.6437 37.0688 17.6437 37.2938 17.4187C37.5188 17.1937 37.5188 16.8187 37.2938 16.5937C37.0688 16.3687 36.6938 16.3687 36.4688 16.5937C36.2438 16.8187 36.2438 17.1937 36.4688 17.4187Z" fill="#0A3B3C"/>
<path d="M41.9437 17.4187C42.1687 17.6437 42.5438 17.6437 42.7688 17.4187C42.9938 17.1937 42.9938 16.8187 42.7688 16.5937C42.5438 16.3687 42.1687 16.3687 41.9437 16.5937C41.7187 16.8187 41.7187 17.1937 41.9437 17.4187Z" fill="#0A3B3C"/>
<path d="M39.2437 17.4187C39.4687 17.6437 39.8437 17.6437 40.0687 17.4187C40.2937 17.1937 40.2937 16.8187 40.0687 16.5937C39.8437 16.3687 39.4687 16.3687 39.2437 16.5937C38.9437 16.8187 38.9437 17.1937 39.2437 17.4187Z" fill="#0A3B3C"/>
<path d="M33.7688 25.5937C33.9938 25.8187 34.3688 25.8187 34.5938 25.5937C34.8188 25.3687 34.8188 24.9937 34.5938 24.7687C34.3688 24.5437 33.9938 24.5437 33.7688 24.7687C33.5438 24.9937 33.5438 25.3687 33.7688 25.5937Z" fill="#0A3B3C"/>
<path d="M31.0687 22.8937C31.2937 23.1187 31.6688 23.1187 31.8938 22.8937C32.1188 22.6687 32.1188 22.2937 31.8938 22.0687C31.6688 21.8437 31.2937 21.8437 31.0687 22.0687C30.8437 22.2937 30.8437 22.6687 31.0687 22.8937Z" fill="#0A3B3C"/>
<path d="M36.4688 22.8937C36.6938 23.1187 37.0688 23.1187 37.2938 22.8937C37.5188 22.6687 37.5188 22.2937 37.2938 22.0687C37.0688 21.8437 36.6938 21.8437 36.4688 22.0687C36.2438 22.2937 36.2438 22.6687 36.4688 22.8937Z" fill="#0A3B3C"/>
<path d="M33.7688 20.1187C33.9938 20.3437 34.3688 20.3437 34.5938 20.1187C34.8188 19.8937 34.8188 19.5188 34.5938 19.2938C34.3688 19.0687 33.9938 19.0687 33.7688 19.2938C33.5438 19.5188 33.5438 19.8937 33.7688 20.1187Z" fill="#0A3B3C"/>
<path d="M31.0687 20.1187C31.2937 20.3437 31.6688 20.3437 31.8938 20.1187C32.1188 19.8937 32.1188 19.5188 31.8938 19.2938C31.6688 19.0687 31.2937 19.0687 31.0687 19.2938C30.8437 19.5188 30.8437 19.8937 31.0687 20.1187Z" fill="#0A3B3C"/>
<path d="M33.7688 22.8937C33.9938 23.1187 34.3688 23.1187 34.5938 22.8937C34.8188 22.6687 34.8188 22.2937 34.5938 22.0687C34.3688 21.8437 33.9938 21.8437 33.7688 22.0687C33.5438 22.2937 33.5438 22.6687 33.7688 22.8937Z" fill="#0A3B3C"/>
<path d="M33.7688 17.4187C33.9938 17.6437 34.3688 17.6437 34.5938 17.4187C34.8188 17.1937 34.8188 16.8187 34.5938 16.5937C34.3688 16.3687 33.9938 16.3687 33.7688 16.5937C33.5438 16.8187 33.5438 17.1937 33.7688 17.4187Z" fill="#0A3B3C"/>
<path d="M36.4688 20.1187C36.6938 20.3437 37.0688 20.3437 37.2938 20.1187C37.5188 19.8937 37.5188 19.5188 37.2938 19.2938C37.0688 19.0687 36.6938 19.0687 36.4688 19.2938C36.2438 19.5188 36.2438 19.8937 36.4688 20.1187Z" fill="#0A3B3C"/>
<path d="M28.2938 20.1187C28.5188 20.3437 28.8937 20.3437 29.1187 20.1187C29.3437 19.8937 29.3437 19.5188 29.1187 19.2938C28.8937 19.0687 28.5188 19.0687 28.2938 19.2938C28.0687 19.5188 28.0687 19.8937 28.2938 20.1187Z" fill="#0A3B3C"/>
<path d="M31.0687 17.4187C31.2937 17.6437 31.6688 17.6437 31.8938 17.4187C32.1188 17.1937 32.1188 16.8187 31.8938 16.5937C31.6688 16.3687 31.2937 16.3687 31.0687 16.5937C30.8437 16.8187 30.8437 17.1937 31.0687 17.4187Z" fill="#0A3B3C"/>
<path d="M39.2437 20.1187C39.4687 20.3437 39.8437 20.3437 40.0687 20.1187C40.2937 19.8937 40.2937 19.5188 40.0687 19.2938C39.8437 19.0687 39.4687 19.0687 39.2437 19.2938C39.0187 19.5188 38.9437 19.8937 39.2437 20.1187Z" fill="#0A3B3C"/>
<path d="M36.4688 17.4187C36.6938 17.6437 37.0688 17.6437 37.2938 17.4187C37.5188 17.1937 37.5188 16.8187 37.2938 16.5937C37.0688 16.3687 36.6938 16.3687 36.4688 16.5937C36.2438 16.8187 36.2438 17.1937 36.4688 17.4187Z" fill="#0A3B3C"/>
<path d="M28.2938 30.9938C28.5188 31.2188 28.8937 31.2188 29.1187 30.9938C29.3437 30.7687 29.3437 30.3938 29.1187 30.1688C28.8937 29.9437 28.5188 29.9437 28.2938 30.1688C28.0687 30.4688 28.0687 30.7687 28.2938 30.9938Z" fill="#0A3B3C"/>
<path d="M25.5938 28.2938C25.8188 28.5188 26.1938 28.5188 26.4188 28.2938C26.6438 28.0688 26.6438 27.6938 26.4188 27.4688C26.1938 27.2438 25.8188 27.2438 25.5938 27.4688C25.3688 27.6938 25.3688 28.0688 25.5938 28.2938Z" fill="#0A3B3C"/>
<path d="M31.0687 28.2938C31.2937 28.5188 31.6688 28.5188 31.8938 28.2938C32.1188 28.0688 32.1188 27.6938 31.8938 27.4688C31.6688 27.2438 31.2937 27.2438 31.0687 27.4688C30.8437 27.6938 30.8437 28.0688 31.0687 28.2938Z" fill="#0A3B3C"/>
<path d="M28.2938 25.5938C28.5188 25.8188 28.8937 25.8188 29.1187 25.5938C29.3437 25.3688 29.3437 24.9938 29.1187 24.7688C28.8937 24.5438 28.5188 24.5438 28.2938 24.7688C28.0687 24.9938 28.0687 25.3688 28.2938 25.5938Z" fill="#0A3B3C"/>
<path d="M25.5938 25.5938C25.8188 25.8188 26.1938 25.8188 26.4188 25.5938C26.6438 25.3688 26.6438 24.9938 26.4188 24.7688C26.1938 24.5438 25.8188 24.5438 25.5938 24.7688C25.3688 24.9938 25.3688 25.3688 25.5938 25.5938Z" fill="#0A3B3C"/>
<path d="M28.2938 28.2938C28.5188 28.5188 28.8937 28.5188 29.1187 28.2938C29.3437 28.0688 29.3437 27.6938 29.1187 27.4688C28.8937 27.2438 28.5188 27.2438 28.2938 27.4688C28.0687 27.6938 28.0687 28.0688 28.2938 28.2938Z" fill="#0A3B3C"/>
<path d="M28.2938 22.8938C28.5188 23.1188 28.8937 23.1188 29.1187 22.8938C29.3437 22.6688 29.3437 22.2938 29.1187 22.0688C28.8937 21.8438 28.5188 21.8438 28.2938 22.0688C28.0687 22.2938 28.0687 22.6688 28.2938 22.8938Z" fill="#0A3B3C"/>
<path d="M31.0687 25.5938C31.2937 25.8188 31.6688 25.8188 31.8938 25.5938C32.1188 25.3688 32.1188 24.9938 31.8938 24.7688C31.6688 24.5438 31.2937 24.5438 31.0687 24.7688C30.8437 24.9938 30.8437 25.3688 31.0687 25.5938Z" fill="#0A3B3C"/>
<path d="M22.8938 25.5938C23.1188 25.8188 23.4938 25.8188 23.7188 25.5938C23.9438 25.3688 23.9438 24.9938 23.7188 24.7688C23.4938 24.5438 23.1188 24.5438 22.8938 24.7688C22.6688 24.9938 22.6688 25.3688 22.8938 25.5938Z" fill="#0A3B3C"/>
<path d="M25.5938 22.8938C25.8188 23.1188 26.1938 23.1188 26.4188 22.8938C26.6438 22.6688 26.6438 22.2938 26.4188 22.0688C26.1938 21.8438 25.8188 21.8438 25.5938 22.0688C25.3688 22.2938 25.3688 22.6688 25.5938 22.8938Z" fill="#0A3B3C"/>
<path d="M33.7688 25.5938C33.9938 25.8188 34.3688 25.8188 34.5938 25.5938C34.8188 25.3688 34.8188 24.9938 34.5938 24.7688C34.3688 24.5438 33.9938 24.5438 33.7688 24.7688C33.5438 24.9938 33.5438 25.3688 33.7688 25.5938Z" fill="#0A3B3C"/>
<path d="M31.0687 22.8938C31.2937 23.1188 31.6688 23.1188 31.8938 22.8938C32.1188 22.6688 32.1188 22.2938 31.8938 22.0688C31.6688 21.8438 31.2937 21.8438 31.0687 22.0688C30.8437 22.2938 30.8437 22.6688 31.0687 22.8938Z" fill="#0A3B3C"/>
<path d="M28.2938 20.1187C28.5188 20.3437 28.8937 20.3437 29.1187 20.1187C29.3437 19.8937 29.3437 19.5188 29.1187 19.2938C28.8937 19.0687 28.5188 19.0687 28.2938 19.2938C28.0687 19.5188 28.0687 19.8937 28.2938 20.1187Z" fill="#0A3B3C"/>
<path d="M22.8938 36.4687C23.1188 36.6937 23.4938 36.6937 23.7188 36.4687C23.9438 36.2437 23.9438 35.8687 23.7188 35.6437C23.4938 35.4187 23.1188 35.4187 22.8938 35.6437C22.6688 35.8687 22.6688 36.2437 22.8938 36.4687Z" fill="#0A3B3C"/>
<path d="M20.1187 33.7687C20.3437 33.9937 20.7187 33.9937 20.9437 33.7687C21.1687 33.5437 21.1687 33.1687 20.9437 32.9437C20.7187 32.7187 20.3437 32.7187 20.1187 32.9437C19.8937 33.1687 19.8937 33.5437 20.1187 33.7687Z" fill="#0A3B3C"/>
<path d="M25.5938 33.7687C25.8188 33.9937 26.1938 33.9937 26.4188 33.7687C26.6438 33.5437 26.6438 33.1687 26.4188 32.9437C26.1938 32.7187 25.8188 32.7187 25.5938 32.9437C25.3688 33.1687 25.3688 33.5437 25.5938 33.7687Z" fill="#0A3B3C"/>
<path d="M22.8938 30.9938C23.1188 31.2188 23.4938 31.2188 23.7188 30.9938C23.9438 30.7687 23.9438 30.3938 23.7188 30.1688C23.4938 29.9437 23.1188 29.9437 22.8938 30.1688C22.6688 30.4688 22.6688 30.7687 22.8938 30.9938Z" fill="#0A3B3C"/>
<path d="M20.1187 30.9938C20.3437 31.2188 20.7187 31.2188 20.9437 30.9938C21.1687 30.7687 21.1687 30.3938 20.9437 30.1688C20.7187 29.9437 20.3437 29.9437 20.1187 30.1688C19.8937 30.4688 19.8937 30.7687 20.1187 30.9938Z" fill="#0A3B3C"/>
<path d="M22.8938 33.7687C23.1188 33.9937 23.4938 33.9937 23.7188 33.7687C23.9438 33.5437 23.9438 33.1687 23.7188 32.9437C23.4938 32.7187 23.1188 32.7187 22.8938 32.9437C22.6688 33.1687 22.6688 33.5437 22.8938 33.7687Z" fill="#0A3B3C"/>
<path d="M22.8938 28.2937C23.1188 28.5187 23.4938 28.5187 23.7188 28.2937C23.9438 28.0687 23.9438 27.6937 23.7188 27.4687C23.4938 27.2437 23.1188 27.2437 22.8938 27.4687C22.6688 27.6937 22.6688 28.0687 22.8938 28.2937Z" fill="#0A3B3C"/>
<path d="M25.5938 30.9938C25.8188 31.2188 26.1938 31.2188 26.4188 30.9938C26.6438 30.7687 26.6438 30.3938 26.4188 30.1688C26.1938 29.9437 25.8188 29.9437 25.5938 30.1688C25.3688 30.4688 25.3688 30.7687 25.5938 30.9938Z" fill="#0A3B3C"/>
<path d="M17.4188 30.9938C17.6438 31.2188 18.0187 31.2188 18.2437 30.9938C18.4687 30.7687 18.4687 30.3938 18.2437 30.1688C18.0187 29.9437 17.6438 29.9437 17.4188 30.1688C17.1937 30.4688 17.1937 30.7687 17.4188 30.9938Z" fill="#0A3B3C"/>
<path d="M20.1187 28.2937C20.3437 28.5187 20.7187 28.5187 20.9437 28.2937C21.1687 28.0687 21.1687 27.6937 20.9437 27.4687C20.7187 27.2437 20.3437 27.2437 20.1187 27.4687C19.8937 27.6937 19.8937 28.0687 20.1187 28.2937Z" fill="#0A3B3C"/>
<path d="M28.2938 30.9938C28.5188 31.2188 28.8937 31.2188 29.1187 30.9938C29.3437 30.7687 29.3437 30.3938 29.1187 30.1688C28.8937 29.9437 28.5188 29.9437 28.2938 30.1688C28.0687 30.4688 28.0687 30.7687 28.2938 30.9938Z" fill="#0A3B3C"/>
<path d="M25.5938 28.2937C25.8188 28.5187 26.1938 28.5187 26.4188 28.2937C26.6438 28.0687 26.6438 27.6937 26.4188 27.4687C26.1938 27.2437 25.8188 27.2437 25.5938 27.4687C25.3688 27.6937 25.3688 28.0687 25.5938 28.2937Z" fill="#0A3B3C"/>
<path d="M22.8938 25.5937C23.1188 25.8187 23.4938 25.8187 23.7188 25.5937C23.9438 25.3687 23.9438 24.9937 23.7188 24.7687C23.4938 24.5437 23.1188 24.5437 22.8938 24.7687C22.6688 24.9937 22.6688 25.3687 22.8938 25.5937Z" fill="#0A3B3C"/>
<path d="M28.2938 20.1187C28.5188 20.3437 28.8937 20.3437 29.1187 20.1187C29.3437 19.8937 29.3437 19.5188 29.1187 19.2938C28.8937 19.0687 28.5188 19.0687 28.2938 19.2938C28.0687 19.5188 28.0687 19.8937 28.2938 20.1187Z" fill="#0A3B3C"/>
<path d="M25.5938 17.4187C25.8188 17.6437 26.1938 17.6437 26.4188 17.4187C26.6438 17.1937 26.6438 16.8187 26.4188 16.5937C26.1938 16.3687 25.8188 16.3687 25.5938 16.5937C25.3688 16.8187 25.3688 17.1937 25.5938 17.4187Z" fill="#0A3B3C"/>
<path d="M31.0687 17.4187C31.2937 17.6437 31.6688 17.6437 31.8938 17.4187C32.1188 17.1937 32.1188 16.8187 31.8938 16.5937C31.6688 16.3687 31.2937 16.3687 31.0687 16.5937C30.8437 16.8187 30.8437 17.1937 31.0687 17.4187Z" fill="#0A3B3C"/>
<path d="M28.2938 17.4187C28.5188 17.6437 28.8937 17.6437 29.1187 17.4187C29.3437 17.1937 29.3437 16.8187 29.1187 16.5937C28.8937 16.3687 28.5188 16.3687 28.2938 16.5937C28.0687 16.8187 28.0687 17.1937 28.2938 17.4187Z" fill="#0A3B3C"/>
<path d="M22.8938 25.5937C23.1188 25.8187 23.4938 25.8187 23.7188 25.5937C23.9438 25.3687 23.9438 24.9937 23.7188 24.7687C23.4938 24.5437 23.1188 24.5437 22.8938 24.7687C22.6688 24.9937 22.6688 25.3687 22.8938 25.5937Z" fill="#0A3B3C"/>
<path d="M20.1187 22.8937C20.3437 23.1187 20.7187 23.1187 20.9437 22.8937C21.1687 22.6687 21.1687 22.2937 20.9437 22.0687C20.7187 21.8437 20.3437 21.8437 20.1187 22.0687C19.8937 22.2937 19.8937 22.6687 20.1187 22.8937Z" fill="#0A3B3C"/>
<path d="M25.5938 22.8937C25.8188 23.1187 26.1938 23.1187 26.4188 22.8937C26.6438 22.6687 26.6438 22.2937 26.4188 22.0687C26.1938 21.8437 25.8188 21.8437 25.5938 22.0687C25.3688 22.2937 25.3688 22.6687 25.5938 22.8937Z" fill="#0A3B3C"/>
<path d="M22.8938 20.1187C23.1188 20.3437 23.4938 20.3437 23.7188 20.1187C23.9438 19.8937 23.9438 19.5188 23.7188 19.2938C23.4938 19.0687 23.1188 19.0687 22.8938 19.2938C22.6688 19.5188 22.6688 19.8937 22.8938 20.1187Z" fill="#0A3B3C"/>
<path d="M20.1187 20.1187C20.3437 20.3437 20.7187 20.3437 20.9437 20.1187C21.1687 19.8937 21.1687 19.5188 20.9437 19.2938C20.7187 19.0687 20.3437 19.0687 20.1187 19.2938C19.8937 19.5188 19.8937 19.8937 20.1187 20.1187Z" fill="#0A3B3C"/>
<path d="M22.8938 22.8937C23.1188 23.1187 23.4938 23.1187 23.7188 22.8937C23.9438 22.6687 23.9438 22.2937 23.7188 22.0687C23.4938 21.8437 23.1188 21.8437 22.8938 22.0687C22.6688 22.2937 22.6688 22.6687 22.8938 22.8937Z" fill="#0A3B3C"/>
<path d="M22.8938 17.4187C23.1188 17.6437 23.4938 17.6437 23.7188 17.4187C23.9438 17.1937 23.9438 16.8187 23.7188 16.5937C23.4938 16.3687 23.1188 16.3687 22.8938 16.5937C22.6688 16.8187 22.6688 17.1937 22.8938 17.4187Z" fill="#0A3B3C"/>
<path d="M25.5938 20.1187C25.8188 20.3437 26.1938 20.3437 26.4188 20.1187C26.6438 19.8937 26.6438 19.5188 26.4188 19.2938C26.1938 19.0687 25.8188 19.0687 25.5938 19.2938C25.3688 19.5188 25.3688 19.8937 25.5938 20.1187Z" fill="#0A3B3C"/>
<path d="M17.4188 20.1187C17.6438 20.3437 18.0187 20.3437 18.2437 20.1187C18.4687 19.8937 18.4687 19.5188 18.2437 19.2938C18.0187 19.0687 17.6438 19.0687 17.4188 19.2938C17.1937 19.5188 17.1937 19.8937 17.4188 20.1187Z" fill="#0A3B3C"/>
<path d="M20.1187 17.4187C20.3437 17.6437 20.7187 17.6437 20.9437 17.4187C21.1687 17.1937 21.1687 16.8187 20.9437 16.5937C20.7187 16.3687 20.3437 16.3687 20.1187 16.5937C19.8937 16.8187 19.8937 17.1937 20.1187 17.4187Z" fill="#0A3B3C"/>
<path d="M28.2938 20.1187C28.5188 20.3437 28.8937 20.3437 29.1187 20.1187C29.3437 19.8937 29.3437 19.5188 29.1187 19.2938C28.8937 19.0687 28.5188 19.0687 28.2938 19.2938C28.0687 19.5188 28.0687 19.8937 28.2938 20.1187Z" fill="#0A3B3C"/>
<path d="M25.5938 17.4187C25.8188 17.6437 26.1938 17.6437 26.4188 17.4187C26.6438 17.1937 26.6438 16.8187 26.4188 16.5937C26.1938 16.3687 25.8188 16.3687 25.5938 16.5937C25.3688 16.8187 25.3688 17.1937 25.5938 17.4187Z" fill="#0A3B3C"/>
</g>
<path d="M20.7304 42.664C20.6038 42.854 20.4867 43.0393 20.3786 43.2181L13.819 25.5071C13.8573 25.4155 13.9049 25.3058 13.9626 25.1808C14.1558 24.7622 14.4594 24.1762 14.8946 23.5234C15.7675 22.2141 17.1474 20.6694 19.1972 19.6444C20.1608 19.1626 21.3536 18.9198 22.7856 18.7531C23.4107 18.6802 24.0595 18.6239 24.742 18.5647C24.8363 18.5565 24.9311 18.5483 25.0267 18.5399C25.8076 18.4717 26.6259 18.3969 27.4575 18.2885C30.3915 17.9058 33.5674 17.0944 36.3577 14.57L43.0993 32.7723C40.6008 35.3542 37.6646 36.1684 34.6988 36.5553C33.9132 36.6577 33.1319 36.7295 32.3527 36.7975C32.2587 36.8057 32.1645 36.8139 32.0704 36.822C31.3912 36.881 30.7108 36.94 30.0542 37.0165C28.5683 37.1895 27.0892 37.4624 25.8028 38.1056C23.3526 39.3307 21.7325 41.1609 20.7304 42.664Z" fill="white" stroke="#0B3B3C" stroke-width="2"/>
<circle cx="30" cy="30" r="29" stroke="#0B3B3C" stroke-width="2"/>
</g>
</svg>